<?xml version="1.0" encoding="iso-8859-1"?>
<!-- Generator: Adobe Illustrator 19.0.0, SVG Export Plug-In . SVG Version: 6.00 Build 0)  -->
<svg version="1.1" id="Capa_1" xmlns="http://www.w3.org/2000/svg" xmlns:xlink="http://www.w3.org/1999/xlink" x="0px" y="0px"
	 viewBox="0 0 512.001 512.001" style="enable-background:new 0 0 512.001 512.001;" xml:space="preserve">
<path style="fill:#AFB4BC;" d="M454.514,243.383H55.183c-13.711,0-24.826,11.115-24.826,24.826v204.662h13.016V272.724
	c0-8.433,6.836-15.269,15.269-15.269h392.13c8.589,0,15.552,6.963,15.552,15.552v199.865h13.016V268.21
	C479.34,254.498,468.225,243.383,454.514,243.383z"/>
<path style="fill:#EDEDED;" d="M111.312,418.832L111.312,418.832c-21.071,0-38.15-17.081-38.15-38.152L73.16,119.908h76.305
	l0.002,260.772C149.466,401.751,132.383,418.832,111.312,418.832z"/>
<path style="fill:#DDDDDD;" d="M73.16,119.908v17.821l0,0c31.353,0,56.77,25.417,56.77,56.77V398.5
	c0,6.323-1.547,12.281-4.27,17.532c13.958-5.671,23.805-19.358,23.805-35.352l-0.002-260.772L73.16,119.908L73.16,119.908z"/>
<path style="fill:#AFB4BC;" d="M148.23,119.908H74.394c-7.374,0-13.352-5.978-13.352-13.352v-0.595
	c0-7.374,5.978-13.352,13.352-13.352h73.836c7.374,0,13.352,5.978,13.352,13.352v0.595
	C161.582,113.93,155.604,119.908,148.23,119.908z"/>
<path style="fill:#979FAF;" d="M148.23,92.61h-30.843c7.374,0,13.352,5.978,13.352,13.352v0.595c0,7.374-5.978,13.352-13.352,13.352
	h30.843c7.374,0,13.352-5.978,13.352-13.352v-0.595C161.582,98.588,155.604,92.61,148.23,92.61z"/>
<path style="fill:#EDEDED;" d="M253.944,418.832L253.944,418.832c-21.071,0-38.15-17.081-38.15-38.152l-0.002-260.772h76.305
	l0.002,260.772C292.098,401.751,275.015,418.832,253.944,418.832z"/>
<path style="fill:#DDDDDD;" d="M215.791,119.908v16.44l0,0c29.127,0,52.739,23.612,52.739,52.739V397.12
	c0,7.661-2.266,14.788-6.153,20.765c17.011-3.84,29.721-19.034,29.721-37.205l-0.002-260.772
	C292.096,119.908,215.791,119.908,215.791,119.908z"/>
<path style="fill:#AFB4BC;" d="M290.565,119.908h-73.242c-7.538,0-13.649-6.111-13.649-13.649l0,0
	c0-7.538,6.111-13.649,13.649-13.649h73.242c7.538,0,13.649,6.111,13.649,13.649l0,0
	C304.214,113.797,298.103,119.908,290.565,119.908z"/>
<path style="fill:#979FAF;" d="M290.862,92.61h-30.843c7.374,0,13.352,5.978,13.352,13.352v0.595
	c0,7.374-5.978,13.352-13.352,13.352h30.843c7.374,0,13.352-5.978,13.352-13.352v-0.595C304.214,98.588,298.236,92.61,290.862,92.61
	z"/>
<path style="fill:#EDEDED;" d="M396.576,418.832L396.576,418.832c-21.071,0-38.15-17.081-38.15-38.152l-0.002-260.772h76.305
	l0.001,260.772C434.728,401.751,417.646,418.832,396.576,418.832z"/>
<path style="fill:#DDDDDD;" d="M358.423,119.908v16.44l0,0c30.408,0,55.058,24.65,55.058,55.058V397.12
	c0,7.349-2.083,14.209-5.683,20.032c15.593-4.793,26.93-19.307,26.93-36.472l-0.001-260.772
	C434.727,119.908,358.423,119.908,358.423,119.908z"/>
<path style="fill:#AFB4BC;" d="M433.494,119.908h-73.836c-7.374,0-13.352-5.978-13.352-13.352v-0.595
	c0-7.374,5.978-13.352,13.352-13.352h73.836c7.374,0,13.352,5.978,13.352,13.352v0.595
	C446.845,113.93,440.868,119.908,433.494,119.908z"/>
<path style="fill:#979FAF;" d="M433.494,92.61H402.65c7.374,0,13.352,5.978,13.352,13.352v0.595c0,7.374-5.978,13.352-13.352,13.352
	h30.843c7.374,0,13.352-5.978,13.352-13.352v-0.595C446.845,98.588,440.868,92.61,433.494,92.61z"/>
<path style="fill:#585A6A;" d="M506.95,508.314H5.05c-2.789,0-5.05-2.261-5.05-5.05l0,0c0-16.785,13.607-30.393,30.393-30.393
	h451.215c16.785,0,30.393,13.607,30.393,30.393l0,0C512,506.053,509.739,508.314,506.95,508.314z"/>
<path style="fill:#2A2B35;" d="M481.607,472.871h-77.272c16.785,0,30.393,13.607,30.393,30.393v5.05h72.221
	c2.789,0,5.05-2.261,5.05-5.05l0,0C512,486.479,498.393,472.871,481.607,472.871z"/>
<path style="fill:#FF85DA;" d="M149.466,277.674H73.162V380.68c0,21.071,17.085,38.152,38.156,38.152l0,0
	c21.071,0,38.148-17.082,38.148-38.152v-103V277.674z"/>
<path style="fill:#F279C4;" d="M149.466,380.686l-0.001-103.012H129.93v136.307C141.583,407.453,149.463,394.993,149.466,380.686z"
	/>
<path style="fill:#736EFF;" d="M292.098,199.538h-76.304V380.68c0,21.071,17.085,38.152,38.156,38.152l0,0
	c21.071,0,38.149-17.082,38.149-38.152V199.554L292.098,199.538L292.098,199.538z"/>
<path style="fill:#6060D8;" d="M292.098,380.689l-0.001-181.152H268.53V415.94C282.361,410.214,292.094,396.591,292.098,380.689z"/>
<path style="fill:#FFDC48;" d="M434.728,331.142v-0.006h-76.303v49.544c0,21.071,17.085,38.152,38.155,38.152l0,0
	c21.071,0,38.147-17.082,38.147-38.152v-49.538H434.728z"/>
<path style="fill:#F2AD00;" d="M413.481,331.136v83.747c12.588-6.234,21.247-19.205,21.247-34.203v-49.538v-0.006H413.481z"/>
<circle style="fill:#FF5122;" cx="147.28" cy="46.605" r="14.306"/>
<circle style="fill:#FFDC48;" cx="389.63" cy="17.992" r="14.306"/>
<g>
	<circle style="fill:#FF8D27;" cx="104.72" cy="167.31" r="8.135"/>
	<circle style="fill:#FF8D27;" cx="104.72" cy="17.992" r="8.135"/>
</g>
<circle style="fill:#579CFF;" cx="268.53" cy="64.6" r="8.135"/>
<g>
	<circle style="fill:#FF8D27;" cx="362.5" cy="60.911" r="8.135"/>
	<circle style="fill:#FF8D27;" cx="407.49" cy="277.68" r="8.135"/>
	<circle style="fill:#FF8D27;" cx="383.46" cy="170.06" r="8.135"/>
</g>
<g>
</g>
<g>
</g>
<g>
</g>
<g>
</g>
<g>
</g>
<g>
</g>
<g>
</g>
<g>
</g>
<g>
</g>
<g>
</g>
<g>
</g>
<g>
</g>
<g>
</g>
<g>
</g>
<g>
</g>
</svg>
